<svg xmlns="http://www.w3.org/2000/svg" viewBox="0 0 701.82 219.69"><defs><style>.cls-1{fill:#191919;}.cls-2{fill:#171a1d;}</style></defs><g id="Calque_2" data-name="Calque 2"><g id="Layer_2" data-name="Layer 2"><path class="cls-1" d="M14.1,194.6c2.11-.17,4.19-.39,6.24-.47a23.23,23.23,0,0,1,3.75.17,2.07,2.07,0,0,1,1.83,2.24,3.47,3.47,0,0,1-1.42,3,3.67,3.67,0,0,1-2.11.87c-5.5-.71-11.42,1.09-17.25,2.4a3.25,3.25,0,0,0-1,.61c-1.49,1.12-2.82,1.05-3.66-.21s-.49-2.65.7-4.09a5.16,5.16,0,0,0,.78-1.34q3.52-8.61,7-17.22c.13-.33.24-.65.36-1,.63-1.85,2-3.16,3.41-3.2s2.55,1.39,2,3.23c-.6,2-1.46,4-2.27,6-.74,1.81-1.56,3.6-2.35,5.4.11.09-2,4.1-1.86,4.19"/><path class="cls-2" d="M14.72,192.75c6-5.26,12.12-10.71,18.05-16.14,5.75-5.05,11.42-10.28,16.91-15.33C62.15,149.79,75,137.91,89,127.89l12.77-9.23,13.07-8.93c6.89-4.84,14.06-9.42,21-13.86l5.33-3.42c3.93-2.58,8-5,12-7.38L168,76.17l20.51-11.42c1.54-.83,3.05-1.6,4.56-2.37l2.42-1.24L209.31,54l21.11-9.94L237.63,41c1.68-.7,3.34-1.42,5-2.13,3-1.3,6.13-2.64,9.26-3.87h0a510.45,510.45,0,0,1,58.53-19.31,379,379,0,0,1,60.35-10.8A325.23,325.23,0,0,1,432,4.72a293.31,293.31,0,0,1,60.4,12.11,297.77,297.77,0,0,1,57.28,25.3A256.9,256.9,0,0,1,580,62.69a317.94,317.94,0,0,1,27.7,24.63,415.37,415.37,0,0,1,47.56,58.21c9.39,13.81,18.13,27.95,27,42.44,6.1,10.07,12.41,20.33,19.54,31.72a53.72,53.72,0,0,0-2.3-9.24c-3-9-8.24-18.94-12.47-26.62-3.52-6.41-7.51-13.24-12.2-20.89-4-6.41-8.46-13.3-13.2-20a395.8,395.8,0,0,0-29.45-37.38C610.63,81.33,586.94,61,561.79,45.25A292.74,292.74,0,0,0,427.19.91L422.72.53,409.56,0c-3.77-.08-7.69,0-11.48,0-2,0-4,.06-6,.07l-4.8.27c-4.18.24-8.51.48-12.74.81l-6,.63c-3.76.39-7.65.79-11.43,1.3a420.51,420.51,0,0,0-68.56,15.43,555.81,555.81,0,0,0-65.94,25.63,686,686,0,0,0-63.14,33.2L144,86.63l-15.14,9.64c-.88.57-1.79,1.15-2.71,1.72-1.6,1-3.21,2-4.78,3.1L99,116.33c-16.13,11.49-37.35,26.85-57.89,43.42-3.76,3-7.41,6-10.88,9-3.15,2.7-6.11,5.53-9,8.26l-.58.57c-6.74,6.53-14.41,16.6-16.93,19.91-.1.13-.22.23-.32.35l2.35,2.95.23-.25Q10.34,196.61,14.72,192.75Z"/></g></g></svg>