<svg xmlns="http://www.w3.org/2000/svg" viewBox="0 0 297.35 130.56"><g id="Calque_2" data-name="Calque 2"><g id="Calque_1-2" data-name="Calque 1"><path d="M240,83.91c-43.95-5.77-87.58-4.79-131.19-4-21.15.38-42.27,1.67-63.41,2.51-13.27.54-26.31-.35-38.15-7.28-6.74-3.93-9-11.17-5.9-18,2.68-5.89,9.27-9.34,14.88-6.38,11.09,5.83,22.51,5.3,34.48,4.76,29.79-1.33,59.62-2.25,89.43-2.25,30,0,60,1.3,89.92,2.08a48.42,48.42,0,0,1,5.69.78C228,47.32,220,38.48,212.14,29.49a70.59,70.59,0,0,1-6.46-8.9c-3.93-6.29-2.2-14.75,3.64-18.67C214.9-1.83,222,0,226.41,6.64,238,24.19,254.18,37.06,270.27,50a103.43,103.43,0,0,0,8.61,6.82A37.47,37.47,0,0,0,288,61.33c6,1.83,9.74,7.18,9.29,14.2-.42,6.73-4.72,11.15-11.21,12a15.67,15.67,0,0,0-5.94,2q-30.35,17.77-60.58,35.74c-1.29.77-2.54,1.59-3.77,2.44-6.16,4.27-13.46,3.78-17.62-1.21-4.59-5.49-4.3-14.33,1.67-18.88,6.44-4.92,13.63-8.88,20.66-13C226.91,90.84,233.52,87.45,240,83.91Z"/></g></g></svg>