<svg xmlns="http://www.w3.org/2000/svg" viewBox="0 0 92.22 32.58"><defs><style>.cls-1{fill:#fff;}</style></defs><g id="Calque_2" data-name="Calque 2"><g id="Calque_1-2" data-name="Calque 1"><path class="cls-1" d="M1.09,29.45a.78.78,0,0,1-.6,0A.7.7,0,0,1,.06,29a.76.76,0,0,1,0-.59c.21-.5.48-1.27.81-2.29s.57-1.73.72-2.09c.07-.2.36-.93.88-2.18s.85-2.24,1.12-3A.78.78,0,0,1,4,18.4a.74.74,0,0,1,.6,0,.58.58,0,0,1,.24.14.71.71,0,0,1,.44.41L9.09,28.4a.79.79,0,0,1-.42,1,.7.7,0,0,1-.6,0A.74.74,0,0,1,7.65,29L6.49,26l-.71,0c-1.39.05-2.48.08-3.27.08-.46,1.35-.79,2.31-1,2.88A.74.74,0,0,1,1.09,29.45ZM5.86,24.5,4.45,21.11,3.08,24.56Z"/><path class="cls-1" d="M10.53,29.27a.69.69,0,0,1-.23-.56l0-3.14c0-.71,0-1.6,0-2.66V22a.69.69,0,0,1,.22-.55.73.73,0,0,1,.52-.2.81.81,0,0,1,.56.21.72.72,0,0,1,.24.57v.47a1.37,1.37,0,0,1,.63-.63,2.61,2.61,0,0,1,1.39-.39,1.78,1.78,0,0,1,.88.18.74.74,0,0,1,.31.67.7.7,0,0,1-.19.51.67.67,0,0,1-.54.21,3.15,3.15,0,0,0-1.78.36,2.06,2.06,0,0,0-.49.44.85.85,0,0,0-.21.51l0,1.93,0,2.42a.72.72,0,0,1-.23.56.8.8,0,0,1-.54.21A.76.76,0,0,1,10.53,29.27Z"/><path class="cls-1" d="M18,29.34a3.88,3.88,0,0,1-.5-.14A3.21,3.21,0,0,1,17,29a1.65,1.65,0,0,1-.48-.4,2.42,2.42,0,0,1-.37-.61A5.71,5.71,0,0,1,16,26.34c0-.63,0-1.44,0-2.42,0-.19,0-.5,0-.93l-.12,0a.76.76,0,0,1-.57-.17.83.83,0,0,1-.29-.52.71.71,0,0,1,.17-.56.79.79,0,0,1,.51-.3l.35,0c0-.54,0-1.09.05-1.65a.79.79,0,0,1,.24-.54.76.76,0,0,1,.56-.2.85.85,0,0,1,.54.25.76.76,0,0,1,.2.56l-.05,1.46.51,0a.79.79,0,0,1,.56.18.72.72,0,0,1,.26.53.75.75,0,0,1-.17.56.76.76,0,0,1-.53.27l-.68,0c0,.5,0,.85,0,1.08,0,1,0,1.75,0,2.36a5.47,5.47,0,0,0,.1,1.06l.09.2a.36.36,0,0,0,.11.1.45.45,0,0,0,.18.07l.35.09a5.57,5.57,0,0,1,.55.17.78.78,0,0,1,.44.38.76.76,0,0,1,0,.59.77.77,0,0,1-.38.45.74.74,0,0,1-.6,0Z"/><path class="cls-1" d="M25.63,29.4a.73.73,0,0,1-.39-.28.8.8,0,0,1-.15-.47c0-.33,0-1.94.08-4.83,0-.47,0-1.22-.05-2.26s0-1.81,0-2.38a.76.76,0,0,1,.25-.54.75.75,0,0,1,.55-.2H26a.75.75,0,0,1,.29-.09l1.13-.08q.42,0,1.17,0a8,8,0,0,1,1.3.1,9.1,9.1,0,0,1,1.19.33,4.64,4.64,0,0,1,2.74,2.62,6.09,6.09,0,0,1,.46,2.58,6.78,6.78,0,0,1-.59,2.53,5.35,5.35,0,0,1-1.52,2A5.57,5.57,0,0,1,29,29.45c-.39,0-.91.05-1.54.05H26.06A.75.75,0,0,1,25.63,29.4ZM27.47,28c.6,0,1.08,0,1.41,0a4,4,0,0,0,2.21-.74,3.92,3.92,0,0,0,1.09-1.44,5,5,0,0,0,.43-1.92,4.31,4.31,0,0,0-.3-1.88,3.22,3.22,0,0,0-1.08-1.39,3.59,3.59,0,0,0-1.36-.6,6,6,0,0,0-1.56-.16c-.5,0-1.06,0-1.68.1,0,.3,0,.83,0,1.62.05,1.12.06,1.9.05,2.35s0,.74,0,1.29,0,1.06,0,1.52,0,.89,0,1.29Z"/><path class="cls-1" d="M37.66,19.28a.91.91,0,0,1-1.56.64.93.93,0,0,1,0-1.29.86.86,0,0,1,.65-.27.75.75,0,0,1,.64.27A.86.86,0,0,1,37.66,19.28ZM36,25.19c0-1.59,0-2.63,0-3.12a.77.77,0,0,1,1.31-.55.75.75,0,0,1,.23.55c0,.49,0,1.53,0,3.11s0,2.76,0,3.53a.74.74,0,0,1-.22.55.68.68,0,0,1-.54.24.8.8,0,0,1-.55-.22.71.71,0,0,1-.23-.54C35.94,28,35.94,26.79,36,25.19Z"/><path class="cls-1" d="M39.55,28.56a2.17,2.17,0,0,1-.35-.87l-.07-.34a2.08,2.08,0,0,0-.06-.24.74.74,0,0,1,.53-.93.83.83,0,0,1,.58.06.7.7,0,0,1,.37.45l.1.39c0,.05,0,.1,0,.14a1.13,1.13,0,0,0,0,.24.58.58,0,0,0,.22.34,1.08,1.08,0,0,0,.55.22,3.17,3.17,0,0,0,1.33,0,2.86,2.86,0,0,0,1.08-.44.57.57,0,0,0,.23-.51.8.8,0,0,0-.54-.65A10.5,10.5,0,0,0,42,26a4.73,4.73,0,0,1-1.9-.68,2,2,0,0,1-.66-2.25,2,2,0,0,1,.88-1.27,3.21,3.21,0,0,1,1.49-.45,4.6,4.6,0,0,1,1.41.16,3.16,3.16,0,0,1,1.58.82l.36.37a1.49,1.49,0,0,0,.21.22.7.7,0,0,1,.23.53.69.69,0,0,1-.22.52.74.74,0,0,1-.54.23.77.77,0,0,1-.55-.22L44,23.7l-.21-.26-.22-.16a3,3,0,0,0-.75-.31,2.89,2.89,0,0,0-.91-.12c-.55,0-.86.22-.94.57s-.06.61.09.73a4.14,4.14,0,0,0,1.25.4,9.93,9.93,0,0,1,2,.47,2.28,2.28,0,0,1,1.43,1.84,1.9,1.9,0,0,1-.77,1.79,3.9,3.9,0,0,1-1.76.78,4.56,4.56,0,0,1-1.94.05A2.41,2.41,0,0,1,39.55,28.56Z"/><path class="cls-1" d="M49.16,29.2a3.39,3.39,0,0,1-1.38-.94,3.33,3.33,0,0,1-.73-1.55A4.53,4.53,0,0,1,47,25a6.12,6.12,0,0,1,.55-1.57,4.76,4.76,0,0,1,.74-1,4,4,0,0,1,1-.77,2.71,2.71,0,0,1,1.23-.34,3.4,3.4,0,0,1,1.41.28,3.16,3.16,0,0,1,.82.59l.49.49a.74.74,0,0,1,.28.53.72.72,0,0,1-.18.56.74.74,0,0,1-.53.27.66.66,0,0,1-.55-.19,3.59,3.59,0,0,1-.33-.29l-.26-.26a1.2,1.2,0,0,0-.35-.28A1.51,1.51,0,0,0,50,23,2.58,2.58,0,0,0,49,24.15a3.46,3.46,0,0,0-.45,1.72A2,2,0,0,0,49,27.24a2,2,0,0,0,.8.53,3.17,3.17,0,0,0,1.11.2,1.51,1.51,0,0,0,1.53-.85l0-.08V26.6a.7.7,0,0,1,.26-.53.78.78,0,0,1,.56-.2.72.72,0,0,1,.53.26.76.76,0,0,1,.2.56V27a1.62,1.62,0,0,1-.11.68,2.61,2.61,0,0,1-1.17,1.34,3.63,3.63,0,0,1-1.76.46A4.44,4.44,0,0,1,49.16,29.2Z"/><path class="cls-1" d="M56.47,28.56A4.64,4.64,0,0,1,55.27,26a4.43,4.43,0,0,1,.3-2.34,4,4,0,0,1,1.75-2.1,2,2,0,0,1,.62-.2h.22l.12,0a.73.73,0,0,1,.46,0h.6l.27,0a2,2,0,0,1,.32.05l.29.11a2.17,2.17,0,0,1,.35.15l.38.22a3.5,3.5,0,0,1,1.38,1.9,3.71,3.71,0,0,1,.2,2A5.3,5.3,0,0,1,62,27.36a4.13,4.13,0,0,1-1,1.27,3.22,3.22,0,0,1-1.33.74A3.14,3.14,0,0,1,56.47,28.56Zm3.91-1.48A3,3,0,0,0,61,25.83a2.76,2.76,0,0,0-.11-1.46,2,2,0,0,0-.81-1.15A2.1,2.1,0,0,0,59.8,23L59.55,23l-.23,0H59l-.5,0-.1,0-.19,0-.11,0a2.42,2.42,0,0,0-1,1.18,2.82,2.82,0,0,0-.21,1.67,2.71,2.71,0,0,0,.76,1.59,1.94,1.94,0,0,0,1.68.43A1.7,1.7,0,0,0,60.38,27.08Z"/><path class="cls-1" d="M66.12,29.33,66,29.19a.71.71,0,0,1-.1-.14l-.13-.22c-.06-.12-.14-.29-.23-.51l-.31-.69c-.16-.4-.52-1.32-1.07-2.75s-.87-2.28-1-2.54a.8.8,0,0,1,.45-1,.76.76,0,0,1,.59,0,.79.79,0,0,1,.41.43c.09.22.41,1.07,1,2.53s.91,2.37,1,2.72l.06.14A1.51,1.51,0,0,0,66.8,27l.08-.19a.5.5,0,0,0,0-.13l0-.06c.07-.16.34-.86.82-2.09A24.51,24.51,0,0,1,69,21.71a.75.75,0,0,1,.46-.37.73.73,0,0,1,.58.06.76.76,0,0,1,.37.47.69.69,0,0,1-.06.58A22.41,22.41,0,0,0,69.23,25c-.43,1.11-.71,1.84-.86,2.19l-.43.94a6.94,6.94,0,0,1-.4.71,1.49,1.49,0,0,1-.28.32,1,1,0,0,1-.61.31A.82.82,0,0,1,66.12,29.33Z"/><path class="cls-1" d="M73.21,29.09a3.28,3.28,0,0,1-1.29-1A5,5,0,0,1,71.27,27a3.45,3.45,0,0,1-.24-1,5.57,5.57,0,0,1,0-1.26,3.8,3.8,0,0,1,.46-1.28,4.12,4.12,0,0,1,.92-1.13,4,4,0,0,1,1.4-.77,4.12,4.12,0,0,1,3.26.32,3.81,3.81,0,0,1,1.08,1,2.85,2.85,0,0,1,.47.74l.16.47.11.37.09.31a3.53,3.53,0,0,1,0,.38,1.12,1.12,0,0,1-.11.54.85.85,0,0,1-.37.38,1,1,0,0,1-.43.08l-2.63.05c-1.85,0-2.78,0-2.78.06h0a2.15,2.15,0,0,0,.84,1.23,3.52,3.52,0,0,0,1.75.53,3.42,3.42,0,0,0,1-.07,3.49,3.49,0,0,0,.64-.22c.14-.07.3-.15.5-.27a.78.78,0,0,1,1,.46.71.71,0,0,1,0,.57A1,1,0,0,1,78,29a2.94,2.94,0,0,1-.51.23,6.72,6.72,0,0,1-.77.24,5.44,5.44,0,0,1-1.51.13A5.65,5.65,0,0,1,73.21,29.09Zm4.17-4.4a3.19,3.19,0,0,0-.45-.88A2.33,2.33,0,0,0,75.4,23a2.24,2.24,0,0,0-1.68.41,2.58,2.58,0,0,0-1,1.38C73.33,24.75,74.88,24.72,77.38,24.69Z"/><path class="cls-1" d="M80.81,29.27a.72.72,0,0,1-.23-.56l0-3.14c0-.71,0-1.6,0-2.66V22a.73.73,0,0,1,.22-.55.76.76,0,0,1,.53-.2.83.83,0,0,1,.56.21.72.72,0,0,1,.24.57v.47a1.37,1.37,0,0,1,.63-.63,2.58,2.58,0,0,1,1.39-.39,1.71,1.71,0,0,1,.87.18.72.72,0,0,1,.31.67.74.74,0,0,1-.18.51.7.7,0,0,1-.54.21,3.22,3.22,0,0,0-1.79.36,2.06,2.06,0,0,0-.49.44.89.89,0,0,0-.2.51l0,1.93v2.42a.69.69,0,0,1-.23.56.76.76,0,0,1-.54.21A.8.8,0,0,1,80.81,29.27Z"/><path class="cls-1" d="M85.65,32.4a.82.82,0,0,1-.28-.52.77.77,0,0,1,.7-.84l.37,0,.28,0,.18,0a.38.38,0,0,0,.17-.07l.15-.09a1.77,1.77,0,0,0,.67-1,1.14,1.14,0,0,1,.18-.37.87.87,0,0,1-.17-.3,30.27,30.27,0,0,0-1.14-3.51c-.51-1.37-.89-2.46-1.14-3.28a.76.76,0,0,1,.53-1,.73.73,0,0,1,.58.06.76.76,0,0,1,.37.47c.2.65.57,1.71,1.11,3.17l.59,1.6a31.19,31.19,0,0,1,2-4.94.74.74,0,0,1,.46-.37.68.68,0,0,1,.59.06.77.77,0,0,1,.37.46.76.76,0,0,1-.06.59,17.46,17.46,0,0,0-.84,1.8c-.28.71-.51,1.3-.68,1.79s-.37,1.15-.64,2c-.06.2-.11.35-.13.43a7.18,7.18,0,0,0-.21.8c-.11.38-.21.69-.28.92A3.89,3.89,0,0,1,88.18,32a2.71,2.71,0,0,1-.43.29,2.54,2.54,0,0,1-.46.17l-.37.07-.4,0a1.38,1.38,0,0,0-.3,0A.75.75,0,0,1,85.65,32.4Z"/><path class="cls-1" d="M34.84,4.56C36.73,7,39,9.81,42.25,10.31a10.75,10.75,0,0,0,5.58-.94c1.86-.72,3.7-1.51,5.53-2.33,2.07-.93,4.11-1.93,6.13-3,1-.5.11-2-.86-1.46-3.24,1.69-6.56,3.24-9.94,4.62a15.4,15.4,0,0,1-5.08,1.49,6.1,6.1,0,0,1-4-1.39A19.21,19.21,0,0,1,36.3,3.7a.86.86,0,0,0-1.15-.3.85.85,0,0,0-.31,1.16Z"/><path class="cls-1" d="M53.88,7.46c1.5.36,3,.79,4.45,1.28a.85.85,0,1,0,.45-1.63c-1.46-.49-3-.92-4.45-1.28a.87.87,0,0,0-1,.59.86.86,0,0,0,.59,1Z"/><path class="cls-1" d="M44,10l-.42,4.75a.86.86,0,0,0,.85.85.87.87,0,0,0,.84-.85L45.7,10a.85.85,0,0,0-.85-.84A.86.86,0,0,0,44,10Z"/><path class="cls-1" d="M36.67,6.42a24,24,0,0,0-4.13,3,.85.85,0,0,0,0,1.2.87.87,0,0,0,1.19,0c.3-.27.6-.53.91-.78l.25-.2L35,9.56h0l.49-.37c.66-.47,1.34-.9,2-1.31a.85.85,0,0,0,.31-1.15.87.87,0,0,0-1.16-.31Z"/><path class="cls-1" d="M39,9.23A17.36,17.36,0,0,0,37.78,12a.86.86,0,0,0,.09.65l.13.18a.91.91,0,0,0,.37.21,1.24,1.24,0,0,0,.89,0,.94.94,0,0,0,.51-.39.86.86,0,0,0-.31-1.16.82.82,0,0,0-.65-.08l-.16,0,.23,0h-.12l.22,0-.16,0,.59,1c.12-.33.24-.65.38-1l-.09.2c.23-.54.49-1.07.77-1.58a.86.86,0,0,0-.3-1.16A.87.87,0,0,0,39,9.23Z"/><path class="cls-1" d="M48.11,8.89l3.09,2.8a.86.86,0,0,0,1.2,0,.87.87,0,0,0,0-1.2L49.31,7.7a.86.86,0,0,0-1.2,0,.85.85,0,0,0,0,1.19Z"/><path class="cls-1" d="M46.18,2.55l-.1.1.17-.14a1.38,1.38,0,0,1-.29.17l.21-.09a1.56,1.56,0,0,1-.37.1l.22,0a1.62,1.62,0,0,1-.44,0l.23,0a2.09,2.09,0,0,1-.43-.11l.21.08a1.58,1.58,0,0,1-.36-.2l.17.13a1.36,1.36,0,0,1-.24-.24l.13.17a1.35,1.35,0,0,1-.15-.26l.08.21a1.09,1.09,0,0,1-.08-.31l0,.22a1.5,1.5,0,0,1,0-.3l0,.23A1.68,1.68,0,0,1,45.23,2l-.09.2a2.33,2.33,0,0,1,.2-.34L45.21,2a2.57,2.57,0,0,1,.28-.29l-.17.14a2.39,2.39,0,0,1,.34-.21l-.2.09a1.33,1.33,0,0,1,.34-.1l-.22,0a1.41,1.41,0,0,1,.29,0l-.22,0a1.25,1.25,0,0,1,.26.07l-.2-.09.24.15-.17-.14a1.21,1.21,0,0,1,.19.2l-.14-.18a1.35,1.35,0,0,1,.15.26l-.08-.2a1.36,1.36,0,0,1,.09.36l0-.23a1.55,1.55,0,0,1,0,.43l0-.22a1.61,1.61,0,0,1-.1.36l.09-.2a1.48,1.48,0,0,1-.16.27L46,2.33a1.37,1.37,0,0,1-.17.17L46,2.37a.72.72,0,0,1-.21.12l.2-.08-.09,0,.82.22L46,1.8a.82.82,0,0,0-.6-.25.85.85,0,0,0-.84.85l0,.22A.78.78,0,0,0,44.8,3l.68.87a.8.8,0,0,0,.82.21,1.9,1.9,0,0,0,1.07-.86A2.24,2.24,0,0,0,47.67,2a2,2,0,0,0-1.54-2,2.14,2.14,0,0,0-1.54.3,2.5,2.5,0,0,0-1,1.21A2.06,2.06,0,0,0,44.52,4a2.41,2.41,0,0,0,2.86-.27.86.86,0,0,0,0-1.2.88.88,0,0,0-1.2,0Z"/></g></g></svg>