<?xml version="1.0" encoding="UTF-8" standalone="no"?>
<!DOCTYPE svg PUBLIC "-//W3C//DTD SVG 1.1//EN" "http://www.w3.org/Graphics/SVG/1.1/DTD/svg11.dtd">
<svg width="100%" height="100%" viewBox="0 0 272 115" version="1.1" xmlns="http://www.w3.org/2000/svg" xmlns:xlink="http://www.w3.org/1999/xlink" xml:space="preserve" xmlns:serif="http://www.serif.com/" style="fill-rule:evenodd;clip-rule:evenodd;stroke-linejoin:round;stroke-miterlimit:2;">
    <g transform="matrix(1.09674,0,-6.94329e-18,1.13747,-19.6154,-13.1386)">
        <path id="Tracé_1" d="M61.35,104.408C44.84,102.005 32.194,95.199 25.782,87.747C19.069,79.946 18.156,71.448 17.921,63.142C17.785,58.283 17.887,53.339 21.109,48.753C24.791,43.514 32.315,39.089 40.276,35.018C68.156,20.675 98.866,12.675 130.2,11.592C133.649,11.486 137.438,11.515 140.198,12.514C140.819,12.737 141.407,13.03 141.953,13.385C163.558,13.478 198.179,14.946 222.471,19.798L222.228,19.766C221.522,19.665 220.809,19.572 220.089,19.487L222.228,19.766C238.835,22.143 251.559,28.974 257.997,36.457C264.71,44.258 265.623,52.756 265.859,61.061C265.994,65.92 265.892,70.865 262.67,75.45C258.988,80.689 251.464,85.115 243.503,89.185C215.623,103.529 184.913,111.529 153.579,112.611C150.13,112.716 146.341,112.688 143.581,111.69C142.958,111.466 142.368,111.172 141.82,110.815C120.22,110.722 85.599,109.255 61.307,104.402L61.35,104.408C62.12,104.52 62.901,104.623 63.69,104.716L61.35,104.408Z" style="fill:rgb(77,78,255);fill-rule:nonzero;"/>
    </g>
</svg>
