<?xml version="1.0" encoding="UTF-8" standalone="no"?>
<!DOCTYPE svg PUBLIC "-//W3C//DTD SVG 1.1//EN" "http://www.w3.org/Graphics/SVG/1.1/DTD/svg11.dtd">
<svg width="100%" height="100%" viewBox="0 0 512 512" version="1.1" xmlns="http://www.w3.org/2000/svg" xmlns:xlink="http://www.w3.org/1999/xlink" xml:space="preserve" xmlns:serif="http://www.serif.com/" style="fill-rule:evenodd;clip-rule:evenodd;stroke-linejoin:round;stroke-miterlimit:2;">
    <rect x="0" y="0" width="512" height="512" style="fill:rgb(255,207,0);"/>
    <g transform="matrix(14.0276,0,0,14.0276,-390.834,146.586)">
        <g id="eye">
            <g>
                <path d="M34.84,4.56C36.73,7 39,9.81 42.25,10.31C44.16,10.501 46.087,10.176 47.83,9.37C49.69,8.65 51.53,7.86 53.36,7.04C55.43,6.11 57.47,5.11 59.49,4.04C60.49,3.54 59.6,2.04 58.63,2.58C55.39,4.27 52.07,5.82 48.69,7.2C47.095,7.986 45.377,8.49 43.61,8.69C42.154,8.719 40.734,8.226 39.61,7.3C38.358,6.246 37.245,5.036 36.3,3.7C36.06,3.311 35.55,3.178 35.15,3.4C34.747,3.634 34.607,4.157 34.84,4.56Z" style="fill:rgb(22,26,29);fill-rule:nonzero;"/>
                <path d="M53.88,7.46C55.38,7.82 56.88,8.25 58.33,8.74C58.429,8.779 58.533,8.798 58.639,8.798C59.106,8.798 59.489,8.415 59.489,7.948C59.489,7.535 59.188,7.178 58.78,7.11C57.32,6.62 55.78,6.19 54.33,5.83C53.897,5.743 53.463,5.999 53.33,6.42C53.239,6.854 53.496,7.29 53.92,7.42L53.88,7.46Z" style="fill:rgb(22,26,29);fill-rule:nonzero;"/>
                <path d="M44,10L43.58,14.75C43.585,15.214 43.966,15.595 44.43,15.6C44.888,15.584 45.26,15.209 45.27,14.75L45.7,10C45.695,9.537 45.313,9.16 44.85,9.16C44.389,9.165 44.011,9.54 44,10Z" style="fill:rgb(22,26,29);fill-rule:nonzero;"/>
                <path d="M36.67,6.42C35.191,7.27 33.806,8.276 32.54,9.42C32.212,9.75 32.212,10.29 32.54,10.62C32.873,10.932 33.397,10.932 33.73,10.62C34.03,10.35 34.33,10.09 34.64,9.84L35,9.56L35.49,9.19C36.15,8.72 36.83,8.29 37.49,7.88C37.887,7.647 38.026,7.131 37.8,6.73C37.559,6.336 37.045,6.198 36.64,6.42L36.67,6.42Z" style="fill:rgb(22,26,29);fill-rule:nonzero;"/>
                <path d="M39.683,11.682C39.717,11.593 39.753,11.502 39.79,11.41L39.7,11.61C39.93,11.07 40.19,10.54 40.47,10.03C40.699,9.628 40.565,9.11 40.17,8.87C39.75,8.65 39.224,8.812 39,9.23C38.513,10.116 38.105,11.043 37.78,12C37.723,12.22 37.755,12.454 37.87,12.65L38,12.83C38.105,12.928 38.232,13 38.37,13.04C38.656,13.15 38.974,13.15 39.26,13.04C39.47,12.974 39.651,12.836 39.77,12.65C39.947,12.334 39.901,11.948 39.683,11.682Z" style="fill:rgb(22,26,29);fill-rule:nonzero;"/>
                <path d="M48.11,8.89L51.2,11.69C51.532,12.013 52.068,12.013 52.4,11.69C52.718,11.356 52.718,10.824 52.4,10.49L49.31,7.7C48.978,7.377 48.442,7.377 48.11,7.7C47.788,8.028 47.788,8.562 48.11,8.89Z" style="fill:rgb(22,26,29);fill-rule:nonzero;"/>
                <g transform="matrix(1,0,0,1,0,0.0356878)">
                    <path d="M47.558,2.802C47.643,2.545 47.682,2.273 47.67,2C47.695,1.056 47.049,0.217 46.13,0C45.597,-0.099 45.047,0.009 44.59,0.3C44.135,0.585 43.785,1.01 43.59,1.51C43.253,2.452 43.648,3.51 44.52,4C45.426,4.549 46.593,4.438 47.38,3.73C47.625,3.479 47.684,3.11 47.558,2.802Z" style="fill:rgb(22,26,29);fill-rule:nonzero;"/>
                </g>
            </g>
        </g>
    </g>
</svg>
