<?xml version="1.0" encoding="UTF-8" standalone="no"?>
<!DOCTYPE svg PUBLIC "-//W3C//DTD SVG 1.1//EN" "http://www.w3.org/Graphics/SVG/1.1/DTD/svg11.dtd">
<svg width="100%" height="100%" viewBox="0 0 512 512" version="1.1" xmlns="http://www.w3.org/2000/svg" xmlns:xlink="http://www.w3.org/1999/xlink" xml:space="preserve" xmlns:serif="http://www.serif.com/" style="fill-rule:evenodd;clip-rule:evenodd;stroke-linejoin:round;stroke-miterlimit:2;">
    <g transform="matrix(1.01429,0,0,1.01429,0.000436014,29.1431)">
        <path d="M89.995,417.489C56.299,408.079 30.322,378.826 17.01,346.23C3.08,312.12 0.92,274.47 0.16,237.63C-0.28,216.08 -0.25,194.12 6.16,173.54C13.47,150.03 28.63,129.81 44.69,111.14C92.17,55.94 154.43,7.94 226.85,0.4C233.85,-0.33 241.58,-0.49 247.23,3.73C248.648,4.79 249.843,6.057 250.872,7.464C294.843,6.248 365.317,10.153 414.9,29.85L414.555,29.765C413.067,29.353 411.566,28.982 410.05,28.65L414.555,29.765C448.366,39.1 474.436,68.416 487.77,101.1C501.69,135.22 503.86,172.85 504.62,209.69C505.07,231.24 505.03,253.2 498.62,273.78C491.31,297.29 476.15,317.52 460.09,336.18C412.6,391.38 350.34,439.38 277.92,446.92C270.92,447.65 263.19,447.81 257.54,443.59C256.117,442.526 254.919,441.254 253.888,439.84C209.917,441.052 139.455,437.147 89.88,417.46L89.995,417.489C91.559,417.926 93.142,418.32 94.74,418.67L89.995,417.489Z" style="fill:rgb(255,207,0);fill-rule:nonzero;"/>
    </g>
    <g transform="matrix(1.55399,0,0,1.55399,-44.3764,-52.286)">
        <text x="144.142px" y="283.249px" style="font-family:'CatamaranRoman-SemiBold', 'Catamaran';font-weight:100;font-size:242.125px;fill:rgb(22,26,29);">?</text>
    </g>
</svg>
