<?xml version="1.0" encoding="UTF-8" standalone="no"?>
<!DOCTYPE svg PUBLIC "-//W3C//DTD SVG 1.1//EN" "http://www.w3.org/Graphics/SVG/1.1/DTD/svg11.dtd">
<svg width="100%" height="100%" viewBox="0 0 93 15" version="1.1" xmlns="http://www.w3.org/2000/svg" xmlns:xlink="http://www.w3.org/1999/xlink" xml:space="preserve" xmlns:serif="http://www.serif.com/" style="fill-rule:evenodd;clip-rule:evenodd;stroke-linejoin:round;stroke-miterlimit:2;">
    <g id="Plan-de-travail1" serif:id="Plan de travail1" transform="matrix(1,0,0,1.03582,-0.000434883,-18.9244)">
        <rect x="0" y="18.27" width="92.22" height="14.31" style="fill:none;"/>
        <clipPath id="_clip1">
            <rect x="0" y="18.27" width="92.22" height="14.31"/>
        </clipPath>
        <g clip-path="url(#_clip1)">
            <g transform="matrix(1,0,0,0.965416,-0.0169011,0.89784)">
                <g id="art-discovery">
                    <g id="text">
                        <path d="M1.09,29.45C0.898,29.53 0.682,29.53 0.49,29.45C0.284,29.376 0.125,29.209 0.06,29C-0.019,28.811 -0.019,28.599 0.06,28.41C0.27,27.91 0.54,27.14 0.87,26.12C1.2,25.1 1.44,24.39 1.59,24.03C1.66,23.83 1.95,23.1 2.47,21.85C2.99,20.6 3.32,19.61 3.59,18.85C3.66,18.651 3.808,18.488 4,18.4C4.191,18.315 4.409,18.315 4.6,18.4C4.69,18.427 4.773,18.475 4.84,18.54C5.04,18.605 5.201,18.755 5.28,18.95L9.09,28.4C9.236,28.79 9.051,29.232 8.67,29.4C8.48,29.49 8.26,29.49 8.07,29.4C7.881,29.329 7.73,29.185 7.65,29L6.49,26L5.78,26C4.39,26.05 3.3,26.08 2.51,26.08C2.05,27.43 1.72,28.39 1.51,28.96C1.452,29.179 1.297,29.36 1.09,29.45ZM5.86,24.5L4.45,21.11L3.08,24.56L5.86,24.5Z" style="fill:white;fill-rule:nonzero;"/>
                        <path d="M10.53,29.27C10.371,29.129 10.286,28.922 10.3,28.71L10.3,22C10.287,21.793 10.368,21.591 10.52,21.45C10.66,21.317 10.847,21.245 11.04,21.25C11.247,21.246 11.447,21.321 11.6,21.46C11.762,21.604 11.85,21.814 11.84,22.03L11.84,22.5C11.974,22.226 12.196,22.004 12.47,21.87C12.887,21.612 13.369,21.477 13.86,21.48C14.164,21.464 14.467,21.526 14.74,21.66C14.955,21.812 15.073,22.068 15.05,22.33C15.058,22.519 14.989,22.703 14.86,22.84C14.721,22.988 14.522,23.065 14.32,23.05C13.704,22.993 13.085,23.118 12.54,23.41C12.354,23.529 12.189,23.678 12.05,23.85C11.925,23.992 11.851,24.171 11.84,24.36L11.84,28.71C11.849,28.921 11.765,29.126 11.61,29.27C11.463,29.405 11.27,29.48 11.07,29.48C10.869,29.484 10.675,29.409 10.53,29.27Z" style="fill:white;fill-rule:nonzero;"/>
                        <path d="M18,29.34C17.83,29.305 17.663,29.258 17.5,29.2C17.328,29.147 17.161,29.081 17,29C16.816,28.898 16.653,28.763 16.52,28.6C16.367,28.416 16.243,28.21 16.15,27.99C16.02,27.45 15.97,26.894 16,26.34L16,22.99L15.88,22.99C15.675,23.013 15.469,22.952 15.31,22.82C15.152,22.689 15.049,22.503 15.02,22.3C14.994,22.098 15.056,21.893 15.19,21.74C15.315,21.578 15.498,21.47 15.7,21.44L16.05,21.44C16.05,20.9 16.05,20.35 16.1,19.79C16.107,19.586 16.193,19.392 16.34,19.25C16.492,19.11 16.694,19.038 16.9,19.05C17.104,19.066 17.296,19.154 17.44,19.3C17.58,19.452 17.652,19.654 17.64,19.86L17.59,21.32L18.1,21.32C18.303,21.306 18.504,21.37 18.66,21.5C18.818,21.631 18.913,21.824 18.92,22.03C18.941,22.232 18.88,22.434 18.75,22.59C18.617,22.748 18.426,22.846 18.22,22.86L17.54,22.86L17.54,26.3C17.539,26.656 17.572,27.011 17.64,27.36L17.73,27.56C17.759,27.601 17.797,27.635 17.84,27.66C17.894,27.696 17.956,27.72 18.02,27.73L18.37,27.82C18.556,27.867 18.74,27.924 18.92,27.99C19.11,28.055 19.268,28.191 19.36,28.37C19.439,28.559 19.439,28.771 19.36,28.96C19.298,29.154 19.161,29.316 18.98,29.41C18.789,29.495 18.571,29.495 18.38,29.41L18,29.34Z" style="fill:white;fill-rule:nonzero;"/>
                        <path d="M25.63,29.4C25.472,29.353 25.335,29.255 25.24,29.12C25.142,28.983 25.089,28.819 25.09,28.65C25.09,28.32 25.09,26.71 25.17,23.82C25.17,23.35 25.17,22.6 25.12,21.56C25.07,20.52 25.12,19.75 25.12,19.18C25.126,18.974 25.217,18.778 25.37,18.64C25.519,18.502 25.717,18.429 25.92,18.44L26,18.44C26.09,18.391 26.188,18.36 26.29,18.35L27.42,18.27L28.59,18.27C29.025,18.268 29.46,18.301 29.89,18.37C30.294,18.453 30.691,18.563 31.08,18.7C32.324,19.143 33.322,20.097 33.82,21.32C34.159,22.136 34.316,23.017 34.28,23.9C34.248,24.773 34.048,25.633 33.69,26.43C33.349,27.208 32.828,27.893 32.17,28.43C31.242,29.085 30.136,29.441 29,29.45C28.61,29.45 28.09,29.5 27.46,29.5L26.06,29.5C25.91,29.511 25.76,29.476 25.63,29.4ZM27.47,28L28.88,28C29.674,27.978 30.443,27.721 31.09,27.26C31.56,26.871 31.934,26.378 32.18,25.82C32.449,25.215 32.595,24.562 32.61,23.9C32.651,23.259 32.549,22.616 32.31,22.02C32.086,21.465 31.712,20.984 31.23,20.63C30.824,20.337 30.36,20.133 29.87,20.03C29.359,19.909 28.835,19.855 28.31,19.87C27.81,19.87 27.25,19.87 26.63,19.97L26.63,21.59C26.68,22.71 26.69,23.49 26.68,23.94C26.67,24.39 26.68,24.68 26.68,25.23L26.68,28.04L27.47,28Z" style="fill:white;fill-rule:nonzero;"/>
                        <path d="M37.66,19.28C37.66,19.281 37.66,19.282 37.66,19.283C37.66,19.782 37.249,20.193 36.75,20.193C36.506,20.193 36.271,20.095 36.1,19.92C35.755,19.562 35.755,18.988 36.1,18.63C36.268,18.451 36.505,18.353 36.75,18.36C36.994,18.34 37.234,18.441 37.39,18.63C37.569,18.798 37.667,19.035 37.66,19.28ZM36,25.19L36,22.07C36,22.07 36,22.069 36,22.069C36,21.646 36.348,21.299 36.77,21.299C36.972,21.299 37.166,21.378 37.31,21.52C37.459,21.664 37.543,21.863 37.54,22.07L37.54,28.71C37.546,28.916 37.467,29.115 37.32,29.26C37.186,29.418 36.987,29.506 36.78,29.5C36.575,29.5 36.378,29.421 36.23,29.28C36.079,29.142 35.995,28.945 36,28.74C35.94,28 35.94,26.79 36,25.19Z" style="fill:white;fill-rule:nonzero;"/>
                        <path d="M39.55,28.56C39.371,28.299 39.252,28.002 39.2,27.69L39.13,27.35C39.115,27.269 39.095,27.189 39.07,27.11C39.049,27.041 39.039,26.97 39.039,26.898C39.039,26.559 39.271,26.262 39.6,26.18C39.794,26.129 40,26.151 40.18,26.24C40.363,26.329 40.498,26.493 40.55,26.69L40.65,27.08L40.65,27.22C40.641,27.3 40.641,27.38 40.65,27.46C40.68,27.596 40.758,27.717 40.87,27.8C41.029,27.923 41.22,27.999 41.42,28.02C41.858,28.114 42.312,28.114 42.75,28.02C43.136,27.949 43.504,27.799 43.83,27.58C43.99,27.462 44.078,27.268 44.06,27.07C44.019,26.769 43.809,26.516 43.52,26.42C43.025,26.242 42.516,26.102 42,26C41.325,25.913 40.677,25.681 40.1,25.32C39.419,24.793 39.152,23.882 39.44,23.07C39.551,22.546 39.869,22.088 40.32,21.8C40.772,21.53 41.284,21.375 41.81,21.35C42.285,21.33 42.761,21.384 43.22,21.51C43.814,21.626 44.363,21.911 44.8,22.33L45.16,22.7C45.222,22.78 45.293,22.854 45.37,22.92C45.519,23.055 45.603,23.249 45.6,23.45C45.604,23.647 45.524,23.836 45.38,23.97C45.239,24.118 45.044,24.201 44.84,24.2C44.635,24.203 44.437,24.124 44.29,23.98L44,23.7L43.79,23.44L43.57,23.28C43.335,23.143 43.083,23.039 42.82,22.97C42.525,22.882 42.218,22.841 41.91,22.85C41.36,22.85 41.05,23.07 40.97,23.42C40.89,23.77 40.91,24.03 41.06,24.15C41.453,24.349 41.875,24.484 42.31,24.55C42.991,24.637 43.661,24.795 44.31,25.02C45.087,25.325 45.637,26.032 45.74,26.86C45.832,27.552 45.536,28.241 44.97,28.65C44.458,29.053 43.853,29.321 43.21,29.43C42.574,29.586 41.913,29.603 41.27,29.48C40.593,29.429 39.968,29.095 39.55,28.56Z" style="fill:white;fill-rule:nonzero;"/>
                        <path d="M49.16,29.2C48.629,29.007 48.154,28.683 47.78,28.26C47.406,27.816 47.154,27.281 47.05,26.71C46.925,26.148 46.908,25.568 47,25C47.111,24.454 47.296,23.926 47.55,23.43C47.752,23.066 48.001,22.73 48.29,22.43C48.58,22.122 48.918,21.862 49.29,21.66C49.667,21.45 50.089,21.334 50.52,21.32C51.005,21.312 51.485,21.407 51.93,21.6C52.233,21.751 52.51,21.951 52.75,22.19L53.24,22.68C53.404,22.809 53.506,23.002 53.52,23.21C53.542,23.414 53.477,23.618 53.34,23.77C53.209,23.93 53.017,24.028 52.81,24.04C52.607,24.065 52.404,23.995 52.26,23.85C52.144,23.76 52.034,23.663 51.93,23.56L51.67,23.3C51.572,23.186 51.453,23.091 51.32,23.02C50.907,22.811 50.419,22.804 50,23C49.559,23.274 49.21,23.675 49,24.15C48.703,24.674 48.548,25.267 48.55,25.87C48.524,26.367 48.685,26.855 49,27.24C49.22,27.479 49.494,27.661 49.8,27.77C50.155,27.902 50.531,27.97 50.91,27.97C51.547,28.041 52.164,27.699 52.44,27.12L52.44,26.6C52.444,26.394 52.54,26.2 52.7,26.07C52.853,25.932 53.054,25.86 53.26,25.87C53.466,25.877 53.659,25.972 53.79,26.13C53.93,26.282 54.002,26.484 53.99,26.69L53.99,27C54.003,27.232 53.965,27.464 53.88,27.68C53.659,28.25 53.245,28.724 52.71,29.02C52.172,29.32 51.566,29.479 50.95,29.48C50.34,29.511 49.731,29.415 49.16,29.2Z" style="fill:white;fill-rule:nonzero;"/>
                        <path d="M56.47,28.56C55.814,27.852 55.394,26.957 55.27,26C55.157,25.207 55.26,24.398 55.57,23.66C55.889,22.776 56.508,22.033 57.32,21.56C57.514,21.46 57.724,21.392 57.94,21.36L58.28,21.36C58.429,21.31 58.591,21.31 58.74,21.36L59.61,21.36C59.718,21.368 59.825,21.385 59.93,21.41L60.22,21.52C60.341,21.56 60.458,21.61 60.57,21.67L60.95,21.89C61.615,22.345 62.103,23.017 62.33,23.79C62.579,24.426 62.649,25.118 62.53,25.79C62.437,26.338 62.258,26.868 62,27.36C61.754,27.845 61.414,28.277 61,28.63C60.622,28.979 60.166,29.233 59.67,29.37C58.538,29.727 57.296,29.413 56.47,28.56ZM60.38,27.08C60.682,26.718 60.894,26.29 61,25.83C61.095,25.342 61.057,24.838 60.89,24.37C60.768,23.901 60.48,23.493 60.08,23.22C59.993,23.139 59.899,23.065 59.8,23L58.1,23C57.647,23.273 57.295,23.688 57.1,24.18C56.862,24.702 56.788,25.285 56.89,25.85C56.959,26.45 57.227,27.01 57.65,27.44C58.111,27.839 58.734,27.999 59.33,27.87C59.772,27.758 60.15,27.473 60.38,27.08Z" style="fill:white;fill-rule:nonzero;"/>
                        <path d="M66.12,29.33L66,29.19C65.961,29.148 65.928,29.101 65.9,29.05L65.77,28.83C65.71,28.71 65.63,28.54 65.54,28.32L65.23,27.63C65.07,27.23 64.71,26.31 64.16,24.88C63.61,23.45 63.29,22.6 63.16,22.34C63.023,21.942 63.221,21.501 63.61,21.34C63.799,21.261 64.011,21.261 64.2,21.34C64.387,21.424 64.535,21.579 64.61,21.77C64.7,21.99 65.02,22.84 65.61,24.3C66.2,25.76 66.52,26.67 66.61,27.02L66.67,27.16C66.717,27.11 66.76,27.056 66.8,27L66.88,26.81C66.886,26.767 66.886,26.723 66.88,26.68L66.88,26.62C66.95,26.46 67.22,25.76 67.7,24.53C68.073,23.563 68.507,22.622 69,21.71C69.096,21.529 69.263,21.395 69.46,21.34C69.653,21.279 69.863,21.3 70.04,21.4C70.222,21.499 70.356,21.669 70.41,21.87C70.477,22.063 70.455,22.275 70.35,22.45C69.924,23.276 69.55,24.128 69.23,25C68.8,26.11 68.52,26.84 68.37,27.19L67.94,28.13C67.821,28.374 67.687,28.611 67.54,28.84C67.462,28.96 67.368,29.067 67.26,29.16C67.099,29.332 66.883,29.442 66.65,29.47C66.463,29.486 66.275,29.436 66.12,29.33Z" style="fill:white;fill-rule:nonzero;"/>
                        <path d="M73.21,29.09C72.703,28.871 72.259,28.527 71.92,28.09C71.658,27.756 71.439,27.389 71.27,27C71.14,26.681 71.06,26.343 71.03,26C70.982,25.581 70.982,25.159 71.03,24.74C71.105,24.289 71.261,23.856 71.49,23.46C71.727,23.032 72.039,22.649 72.41,22.33C72.82,21.982 73.296,21.72 73.81,21.56C74.894,21.212 76.075,21.328 77.07,21.88C77.492,22.14 77.858,22.48 78.15,22.88C78.344,23.101 78.502,23.351 78.62,23.62L78.78,24.09L78.89,24.46L78.98,24.77C78.987,24.897 78.987,25.023 78.98,25.15C78.989,25.336 78.951,25.522 78.87,25.69C78.79,25.853 78.661,25.986 78.5,26.07C78.364,26.128 78.217,26.155 78.07,26.15L75.44,26.2C73.59,26.2 72.66,26.2 72.66,26.26C72.784,26.757 73.082,27.193 73.5,27.49C74.026,27.818 74.63,28.001 75.25,28.02C75.585,28.046 75.922,28.022 76.25,27.95C76.47,27.898 76.684,27.824 76.89,27.73C77.03,27.66 77.19,27.58 77.39,27.46C77.79,27.313 78.241,27.52 78.39,27.92C78.47,28.102 78.47,28.308 78.39,28.49C78.32,28.698 78.182,28.878 78,29C77.838,29.093 77.667,29.17 77.49,29.23C77.238,29.325 76.981,29.405 76.72,29.47C76.225,29.584 75.717,29.627 75.21,29.6C74.518,29.554 73.84,29.381 73.21,29.09ZM77.38,24.69C77.277,24.375 77.125,24.078 76.93,23.81C76.543,23.354 75.995,23.063 75.4,23C74.808,22.906 74.202,23.054 73.72,23.41C73.24,23.743 72.887,24.23 72.72,24.79C73.33,24.75 74.88,24.72 77.38,24.69Z" style="fill:white;fill-rule:nonzero;"/>
                        <path d="M80.81,29.27C80.655,29.126 80.571,28.921 80.58,28.71L80.58,22C80.572,21.794 80.652,21.594 80.8,21.45C80.944,21.318 81.134,21.246 81.33,21.25C81.536,21.248 81.736,21.323 81.89,21.46C82.052,21.604 82.14,21.814 82.13,22.03L82.13,22.5C82.264,22.226 82.486,22.004 82.76,21.87C83.177,21.61 83.659,21.475 84.15,21.48C84.451,21.462 84.751,21.524 85.02,21.66C85.238,21.809 85.358,22.067 85.33,22.33C85.336,22.517 85.272,22.699 85.15,22.84C85.009,22.985 84.812,23.061 84.61,23.05C83.991,22.995 83.369,23.12 82.82,23.41C82.634,23.529 82.469,23.678 82.33,23.85C82.211,23.995 82.141,24.173 82.13,24.36L82.13,28.71C82.144,28.922 82.059,29.129 81.9,29.27C81.755,29.409 81.561,29.484 81.36,29.48C81.157,29.482 80.96,29.407 80.81,29.27Z" style="fill:white;fill-rule:nonzero;"/>
                        <path d="M85.65,32.4C85.495,32.268 85.395,32.082 85.37,31.88C85.368,31.856 85.367,31.831 85.367,31.807C85.367,31.41 85.674,31.074 86.07,31.04L86.9,31.04C86.962,31.031 87.02,31.007 87.07,30.97L87.22,30.88C87.553,30.635 87.79,30.281 87.89,29.88C87.927,29.747 87.988,29.621 88.07,29.51C87.994,29.422 87.936,29.32 87.9,29.21C87.592,28.018 87.211,26.846 86.76,25.7C86.25,24.33 85.87,23.24 85.62,22.42C85.589,22.336 85.573,22.247 85.573,22.158C85.573,21.81 85.812,21.504 86.15,21.42C86.343,21.359 86.553,21.38 86.73,21.48C86.912,21.579 87.046,21.749 87.1,21.95C87.3,22.6 87.67,23.66 88.21,25.12L88.8,26.72C89.325,25.019 89.994,23.367 90.8,21.78C90.895,21.598 91.062,21.464 91.26,21.41C91.455,21.339 91.673,21.361 91.85,21.47C92.029,21.568 92.163,21.734 92.22,21.93C92.281,22.127 92.259,22.34 92.16,22.52C91.846,23.104 91.566,23.705 91.32,24.32C91.04,25.03 90.81,25.62 90.64,26.11C90.47,26.6 90.27,27.26 90,28.11C89.94,28.31 89.89,28.46 89.87,28.54C89.785,28.802 89.715,29.07 89.66,29.34C89.55,29.72 89.45,30.03 89.38,30.26C89.148,30.94 88.733,31.542 88.18,32C88.046,32.11 87.902,32.207 87.75,32.29C87.603,32.361 87.448,32.418 87.29,32.46L86.92,32.53L86.52,32.53C86.42,32.519 86.32,32.519 86.22,32.53C86.02,32.566 85.815,32.519 85.65,32.4Z" style="fill:white;fill-rule:nonzero;"/>
                    </g>
                </g>
            </g>
        </g>
    </g>
</svg>
